HIERARCHY
ROOT hip
{
	OFFSET 0.000000 0.000000 0.000000 
	CHANNELS 6 Xposition Yposition Zposition Xrotation Zrotation Yrotation
	JOINT abdomen
	{
		OFFSET 0.000000 3.402643 0.000000 
		CHANNELS 3 Xrotation Zrotation Yrotation
		JOINT chest
		{
			OFFSET 0.000000 8.438565 -0.680529 
			CHANNELS 3 Xrotation Zrotation Yrotation
			JOINT neck
			{
				OFFSET 0.000000 10.207942 -0.272212 
				CHANNELS 3 Xrotation Zrotation Yrotation
				JOINT head
				{
					OFFSET 0.000000 3.130431 0.000000 
					CHANNELS 3 Xrotation Zrotation Yrotation
					End Site
					{
						OFFSET 0.000000 3.130435 0.000000 
					}
				}
			}
			JOINT lCollar
			{
				OFFSET 3.470700 6.669187 -0.816635 
				CHANNELS 3 Yrotation Zrotation Xrotation
				JOINT lShldr
				{
					OFFSET 3.198488 0.000000 0.000000 
					CHANNELS 3 Zrotation Yrotation Xrotation
					JOINT lForeArm
					{
						OFFSET 10.139888 0.000000 0.000000 
						CHANNELS 3 Yrotation Zrotation Xrotation
						JOINT lHand
						{
							OFFSET 8.370511 0.000000 0.000000 
							CHANNELS 3 Zrotation Yrotation Xrotation
							End Site
							{
								OFFSET 4.083176 0.000000 0.000000 
							}
						}
					}
				}
			}
			JOINT rCollar
			{
				OFFSET -3.470700 6.669187 -0.816635 
				CHANNELS 3 Yrotation Zrotation Xrotation
				JOINT rShldr
				{
					OFFSET -3.198488 0.000000 0.000000 
					CHANNELS 3 Zrotation Yrotation Xrotation
					JOINT rForeArm
					{
						OFFSET -10.139888 0.000000 0.000000 
						CHANNELS 3 Yrotation Zrotation Xrotation
						JOINT rHand
						{
							OFFSET -8.370511 0.000000 0.000000 
							CHANNELS 3 Zrotation Yrotation Xrotation
							End Site
							{
								OFFSET -4.083176 0.000000 0.000000 
							}
						}
					}
				}
			}
		}
	}
	JOINT lThigh
	{
		OFFSET 5.308129 -1.633274 1.361059 
		CHANNELS 3 Xrotation Zrotation Yrotation
		JOINT lShin
		{
			OFFSET -2.041588 -20.007561 0.000000 
			CHANNELS 3 Xrotation Zrotation Yrotation
			JOINT lFoot
			{
				OFFSET 0.000000 -19.190928 -1.224953 
				CHANNELS 3 Xrotation Yrotation Zrotation
				End Site
				{
					OFFSET 0.000000 -2.449906 4.627600 
				}
			}
		}
	}
	JOINT rThigh
	{
		OFFSET -5.308129 -1.633274 1.361059 
		CHANNELS 3 Xrotation Zrotation Yrotation
		JOINT rShin
		{
			OFFSET 2.041588 -20.007561 0.000000 
			CHANNELS 3 Xrotation Zrotation Yrotation
			JOINT rFoot
			{
				OFFSET 0.000000 -19.190928 -1.224953 
				CHANNELS 3 Xrotation Yrotation Zrotation
				End Site
				{
					OFFSET 0.000000 -2.449906 4.627600 
				}
			}
		}
	}
}
MOTION
Frames: 16
Frame Time: 0.016667
0.000000 40.624702 -0.755184 7.726827 -0.175767 -0.722683 0.187378 -0.097639 -1.074234 0.117637 -0.146484 -0.175806 16.994673 -3.456838 0.606133 4.491192 -0.126949 0.449218 -0.001468 -1.230468 -0.068344 -58.922054 35.282516 -19.454327 -63.355415 -36.020195 -19.306351 -15.191843 -20.292038 2.475456 -1.884439 0.479800 -0.039122 69.941803 13.908990 -26.374378 32.711754 6.953299 7.154601 12.406511 20.144932 -0.324546 -37.281322 2.997599 1.213535 71.179962 -7.965690 -7.943990 -44.523766 -3.613801 6.937393 -26.303448 -2.148118 -2.222462 119.707520 -0.702287 9.130605 7.712674 -9.854798 -0.468014 
0.000000 38.211075 -0.942825 8.251954 0.000000 0.000000 0.254642 -0.166014 -0.253933 0.117637 -0.146484 -0.175806 14.280452 -3.398247 0.606141 3.017189 -0.058592 0.380859 -0.001468 -1.230468 -0.068344 -59.877728 29.680559 -18.138462 -57.432110 -34.028912 -14.941834 -14.979373 -20.925983 2.484041 -1.884439 0.479800 -0.039122 69.681152 9.091064 -24.741030 28.139950 7.271787 8.918426 12.643387 19.580433 -0.104567 -40.794971 4.335129 1.838281 82.809868 -8.621956 -9.888674 -53.565346 -5.507257 6.765412 -34.749741 -1.806394 -3.480531 137.387695 -3.202374 10.113649 -8.622524 -11.509724 -1.950998 
0.000000 38.410019 -0.735053 8.985423 0.048817 1.230477 0.778554 -0.351552 0.439445 -0.282808 -0.361185 -1.611419 10.634506 -3.339613 0.674959 1.211350 0.078124 0.302747 -0.001468 -1.230468 -0.068344 -61.483395 22.708424 -16.355053 -50.519135 -31.990936 -9.573993 -14.675312 -21.745672 2.494904 -1.884439 0.479800 -0.039122 70.960869 3.112889 -23.416269 23.099028 7.953743 10.873339 12.984929 18.820253 0.243666 -37.369705 4.794800 1.849412 80.766891 -9.246459 -9.565995 -55.478935 -7.516775 5.720346 -54.944752 -2.724561 -3.712443 134.410950 -3.466491 9.490716 -3.026209 -10.764104 -1.024791 
0.000000 38.608952 -0.527293 9.720571 0.087810 2.460950 1.307544 -0.556536 1.113324 -0.680707 -0.604613 -3.047117 6.979495 -3.280982 0.733457 -0.585132 0.214842 0.214879 -0.001468 -1.230468 -0.068344 -63.237389 15.792207 -14.442040 -44.024231 -29.442404 -4.660126 -14.372176 -22.563490 2.507022 -1.884439 0.479800 -0.039122 72.104866 -2.888930 -22.227882 18.030903 8.445261 12.881807 13.301608 18.059393 0.571543 -33.931202 5.253281 1.892608 78.714127 -9.861264 -9.237237 -57.448441 -9.502816 4.589298 -75.163902 -3.681434 -3.604793 131.432205 -3.766520 8.935972 2.560535 -9.985175 -0.206298 
0.000000 40.518070 0.137548 10.481809 0.048717 3.867195 2.217287 -0.781018 1.396488 -1.536064 -0.875678 -4.912728 2.942095 -3.222326 0.821211 -2.499304 0.371093 0.107483 -0.001468 -1.230468 -0.068344 -65.144348 8.319074 -12.472285 -43.256325 -25.856531 -2.615773 -14.040271 -23.463142 2.501819 -1.884439 0.479800 -0.039122 74.018600 -9.292083 -21.070173 17.201857 10.182433 13.750128 13.660866 17.229593 0.963738 -26.481775 4.433201 1.912693 66.393547 -9.634107 -7.358124 -51.587757 -10.171638 3.768003 -76.225807 -4.335445 -1.557701 114.553764 -2.342133 7.820597 -1.600156 -8.417932 0.059405 
0.000000 42.427074 0.802377 11.241132 0.009724 5.273439 3.134353 -1.024960 1.660415 -2.380265 -1.173406 -6.769152 -1.084973 -3.173437 0.899763 -4.423737 0.537109 0.009857 -0.001468 -1.230468 -0.068344 -67.278870 0.929369 -10.281212 -42.655342 -22.241407 -0.682341 -13.712862 -24.358664 2.509133 -1.884439 0.479800 -0.039122 75.843521 -15.719537 -20.118801 16.338551 11.911809 14.640973 14.003428 16.398508 1.338070 -19.048025 3.631773 1.826988 54.108196 -9.027465 -5.584367 -45.726177 -10.959297 3.007529 -77.295219 -4.960724 0.516606 97.671852 -1.298606 6.363436 -5.747529 -6.882927 0.433887 
0.000000 43.777607 1.678272 11.904297 0.000000 6.406250 4.208230 -1.151952 1.494428 -3.537866 -1.287247 -7.658256 -4.944498 -3.105035 0.958271 -6.358440 0.664062 -0.087885 -0.001468 -1.230468 -0.068344 -68.805649 -6.560499 -8.471839 -52.554329 -17.299990 -4.670112 -13.400615 -25.230907 2.524592 -1.884439 0.479800 -0.039122 76.841537 -22.149414 -18.532959 22.643463 15.171844 13.638324 14.356031 15.598819 1.691499 -11.884981 3.073400 1.301392 42.489750 -7.979922 -3.973666 -38.153622 -10.729004 2.264748 -76.445107 -5.488180 1.335300 92.168846 -0.800384 5.562063 -18.441765 -7.744739 -0.568532 
0.000000 45.128078 2.554126 12.554749 -0.029044 7.539062 5.283057 -1.288726 1.308922 -4.700217 -1.409951 -8.547600 -8.793600 -3.036641 1.007033 -8.303238 0.800777 -0.175764 -0.001468 -1.230468 -0.068344 -70.599304 -14.003395 -6.429471 -61.847561 -11.805723 -7.638157 -13.079554 -26.111599 2.538293 -1.884439 0.479800 -0.039122 77.682381 -28.601042 -16.992243 29.106195 18.298018 12.248208 14.696580 14.795867 2.030601 -4.739609 2.584377 0.708287 30.961086 -6.636609 -2.568009 -30.600254 -10.622678 1.504200 -75.592369 -6.035144 2.157676 86.671745 -0.390327 4.738477 -31.148558 -8.383231 -1.737679 
0.000000 45.766247 2.932973 13.211446 -0.009658 8.505858 6.470595 -1.327916 1.015805 -5.993311 -1.475203 -9.134093 -11.914710 -2.929270 0.968029 -10.189209 0.859367 -0.244113 -0.001468 -1.230468 -0.068344 -71.095650 -21.064205 -5.101795 -73.301193 -8.769949 -12.115569 -12.830141 -26.854818 2.551928 -1.884439 0.479800 -0.039122 76.280098 -34.692486 -14.400050 36.694004 19.898218 10.131894 14.976429 14.129716 2.251035 -0.390724 2.195322 0.295197 24.253128 -5.541342 -1.696899 -24.744347 -10.647032 1.045649 -76.018822 -6.728266 2.964439 84.055588 -0.292779 4.200750 -40.088909 -9.143882 -2.658786 
0.000000 46.404377 3.311723 13.876953 0.000000 9.482422 7.658646 -1.376847 0.712920 -7.293429 -1.549750 -9.710841 -15.035644 -2.831667 0.918778 -12.065450 0.927721 -0.302695 -0.001468 -1.230468 -0.068344 -71.796921 -28.120831 -3.628917 -84.386246 -4.921659 -15.877511 -12.584117 -27.605944 2.575006 -1.884439 0.479800 -0.039122 74.406006 -40.711365 -11.396499 44.402725 21.196192 7.781612 15.259529 13.461491 2.466532 3.920968 1.843138 -0.123608 17.596708 -4.375271 -0.956948 -18.881676 -10.739139 0.590380 -76.475723 -7.402140 3.775466 81.437546 -0.234107 3.676538 -49.036304 -9.747529 -3.682111 
0.000000 46.497910 2.716529 14.570312 0.000000 10.322265 8.734742 -1.376869 0.634817 -8.362342 -1.688840 -10.707919 -16.870043 -2.665798 0.732992 -13.794100 0.869126 -0.331993 -0.001468 -1.230468 -0.068344 -70.649017 -34.316879 -3.097488 -87.914825 -6.038757 -15.743161 -12.444524 -28.116837 2.625554 -1.884439 0.479800 -0.039122 69.210167 -46.144989 -7.250418 47.107468 18.920780 5.880757 15.431918 13.026199 2.479231 4.618202 2.020963 -0.233153 17.407698 -4.013319 -0.650560 -14.944211 -11.307678 1.035140 -72.554993 -8.212524 4.348553 66.876625 0.538092 3.004582 -45.581276 -10.413240 -3.841748 
0.000000 46.591305 2.121329 15.283204 0.000000 11.171874 9.810744 -1.386653 0.556714 -9.424670 -1.836099 -11.695568 -18.715040 -2.519421 0.537449 -15.512649 0.810532 -0.341763 -0.001468 -1.230468 -0.068344 -69.474083 -40.527302 -2.666394 -91.446327 -7.155798 -15.691632 -12.293651 -28.628576 2.664402 -1.884439 0.479800 -0.039122 62.835827 -51.250080 -1.884515 49.703827 16.564558 4.116929 15.602859 12.581541 2.484775 5.286307 2.184628 -0.340294 17.214174 -3.652332 -0.325260 -11.002583 -11.846065 1.532981 -68.619987 -9.062114 4.885513 52.305305 1.115224 2.142187 -42.113464 -11.070044 -3.920427 
0.000000 45.479439 1.461779 15.537109 0.000000 11.201171 9.709084 -1.367076 0.732446 -9.306330 -1.853772 -11.910928 -18.716394 -2.285150 0.136610 -16.985569 0.595695 -0.302718 -0.001468 -1.230468 -0.068344 -66.049957 -45.440414 -3.219272 -87.676468 -9.491842 -13.583838 -12.313721 -28.811152 2.749653 -1.884439 0.479800 -0.039122 52.352062 -55.738182 4.450967 49.004513 16.796593 3.638658 15.619299 12.480044 2.194197 2.985390 2.517383 -0.090144 24.807981 -4.086090 -0.939683 -12.266718 -11.492551 3.088283 -63.884159 -9.814134 4.838653 39.538208 1.829730 1.595213 -32.740604 -11.150278 -3.256973 
0.000000 44.367390 0.802345 15.800780 0.000000 11.240234 9.617384 -1.357255 0.898648 -9.179822 -1.861773 -12.135414 -18.721376 -2.050761 -0.254093 -18.458612 0.371090 -0.244136 -0.001468 -1.230468 -0.068344 -62.224895 -50.320126 -4.267263 -83.790512 -11.678285 -11.322547 -12.328988 -28.995806 2.826516 -1.884439 0.479800 -0.039122 39.752293 -59.386543 12.994514 48.293739 17.031368 3.170549 15.637088 12.379050 1.903274 0.652846 2.863962 0.128801 32.437065 -4.424800 -1.606139 -13.568474 -11.175537 4.623168 -59.150974 -10.565948 4.740736 26.752048 2.411617 0.879150 -23.368752 -11.130469 -2.573298 
0.000000 41.910015 0.958749 15.224609 0.000000 9.960937 7.657232 -1.318055 1.230592 -7.286128 -1.516943 -10.540870 -16.506697 -1.786913 -0.850110 -19.365210 -0.009766 -0.136720 -0.001468 -1.230468 -0.068344 -56.806664 -53.283710 -6.171809 -75.642670 -11.517467 -10.030890 -12.520194 -28.760601 2.949154 -1.884439 0.479800 -0.039122 24.825577 -62.484749 20.921934 47.827152 25.006653 3.911649 15.473639 12.680959 1.346407 -2.644643 3.717906 0.327122 46.494373 -5.146412 -3.520025 -11.630132 -8.649532 7.120151 -64.464706 -9.296272 3.892627 42.847137 2.141615 2.474864 -23.225082 -9.863507 -1.555609 
0.000000 39.452869 1.115183 14.655258 -0.019308 8.671875 5.697969 -1.278833 1.543238 -5.381988 -1.234827 -8.937665 -14.298752 -1.493678 -1.426315 -20.273304 -0.390625 -0.019597 -0.001468 -1.230468 -0.068344 -50.819157 -56.120918 -8.730597 -67.506699 -11.164502 -8.778448 -12.710073 -28.524956 3.066020 -1.884439 0.479800 -0.039122 7.717727 -64.405479 31.125370 47.204048 32.969788 4.787938 15.303289 12.983460 0.779628 -5.954654 4.578265 0.466205 60.597378 -5.384488 -5.509847 -9.825397 -6.088382 9.530928 -69.786560 -8.115037 2.960919 58.932926 1.455056 3.902625 -23.093317 -8.601984 -0.534761 
